<svg width="144" height="159" viewBox="0 0 144 159" fill="none" xmlns="http://www.w3.org/2000/svg">
<path fill-rule="evenodd" clip-rule="evenodd" d="M67.0003 0.0578601C72.5113 -0.23714 77.8443 0.59586 83.0003 2.55786C98.0003 10.8909 113 19.2249 128 27.5579C135.709 31.5999 140.876 37.7669 143.5 46.0579C144.167 68.0579 144.167 90.0579 143.5 112.058C141.262 119.63 136.762 125.463 130 129.558C113.129 139.16 96.1292 148.493 79.0003 157.558C72.4463 158.639 66.1123 157.972 60.0003 155.558C43.5042 146.478 27.1712 137.144 11.0002 127.558C5.40525 122.967 1.90525 117.134 0.50025 110.058C-0.16675 89.0579 -0.16675 68.0579 0.50025 47.0579C3.80125 38.0889 9.63425 31.2549 18.0002 26.5579C34.1393 17.1589 50.4733 8.32486 67.0003 0.0578601Z" fill="#FE5D1C"/>
<path fill-rule="evenodd" clip-rule="evenodd" d="M66.0002 26.0579C70.0142 25.8919 74.0142 26.0589 78.0002 26.5579C89.6622 32.7199 100.996 39.3869 112 46.5579C100.082 54.0169 87.7492 60.6829 75.0002 66.5579C72.6672 67.2249 70.3332 67.2249 68.0002 66.5579C55.8372 59.9779 43.8372 53.1439 32.0002 46.0579C43.3962 39.3649 54.7302 32.6979 66.0002 26.0579Z" fill="#F8F2EB"/>
<path fill-rule="evenodd" clip-rule="evenodd" d="M22.0002 66.0579C32.3062 71.8789 42.6392 77.7129 53.0002 83.5579C56.1672 85.3909 58.6672 87.8909 60.5002 91.0579C62.1112 104.322 62.4442 117.655 61.5002 131.058C51.2422 124.844 40.7422 119.011 30.0002 113.558C27.2812 111.961 25.1142 109.795 23.5002 107.058C22.0542 93.4649 21.5542 79.7979 22.0002 66.0579Z" fill="#F8F3EB"/>
</svg>
